<?xml version="1.0" encoding="UTF-8" standalone="no"?>
<svg
   xmlns:dc="http://purl.org/dc/elements/1.1/"
   xmlns:cc="http://creativecommons.org/ns#"
   xmlns:rdf="http://www.w3.org/1999/02/22-rdf-syntax-ns#"
   xmlns:svg="http://www.w3.org/2000/svg"
   xmlns="http://www.w3.org/2000/svg"
   xmlns:sodipodi="http://sodipodi.sourceforge.net/DTD/sodipodi-0.dtd"
   xmlns:inkscape="http://www.inkscape.org/namespaces/inkscape"
   version="1.1"
   id="Layer_1"
   x="0px"
   y="0px"
   viewBox="0 0 350.001 350.001"
   style="enable-background:new 0 0 350.001 350.001;"
   xml:space="preserve"
   sodipodi:docname="buffer.svg"
   inkscape:version="1.0.1 (3bc2e813f5, 2020-09-07)"><metadata
   id="metadata45"><rdf:RDF><cc:Work
       rdf:about=""><dc:format>image/svg+xml</dc:format><dc:type
         rdf:resource="http://purl.org/dc/dcmitype/StillImage" /></cc:Work></rdf:RDF></metadata><defs
   id="defs43" /><sodipodi:namedview
   pagecolor="#ffffff"
   bordercolor="#666666"
   borderopacity="1"
   objecttolerance="10"
   gridtolerance="10"
   guidetolerance="10"
   inkscape:pageopacity="0"
   inkscape:pageshadow="2"
   inkscape:window-width="1024"
   inkscape:window-height="705"
   id="namedview41"
   showgrid="false"
   inkscape:zoom="1.4171388"
   inkscape:cx="39.163419"
   inkscape:cy="175.0005"
   inkscape:window-x="-8"
   inkscape:window-y="-8"
   inkscape:window-maximized="1"
   inkscape:current-layer="Layer_1" />
<g
   id="g8">
	<path
   style="fill:#e7e7e7;fill-opacity:1"
   d="M14.092,88.769L172.1,164.826c1.833,0.882,3.969,0.882,5.802,0L335.91,88.768   c5.051-2.429,5.051-9.621,0-12.051L177.9,0.662c-1.832-0.882-3.968-0.882-5.801,0L14.092,76.718   C9.041,79.148,9.041,86.339,14.092,88.769z"
   id="path2" />
	<path
   style="fill:#e7e7e7;fill-opacity:1"
   d="M14.092,181.024L172.1,257.082c1.833,0.882,3.969,0.882,5.802,0l158.008-76.057   c5.051-2.429,5.051-9.621,0-12.053l-33.336-16.044l-105.881,50.962c-6.726,3.236-14.228,4.946-21.692,4.946   s-14.964-1.71-21.702-4.951L47.43,152.924l-33.339,16.047C9.041,171.404,9.041,178.595,14.092,181.024z"
   id="path4" />
	<path
   style="fill:#e7e7e7;fill-opacity:1"
   d="M335.91,261.229l-33.336-16.047l-105.881,50.965c-6.726,3.236-14.228,4.946-21.692,4.946   s-14.964-1.71-21.702-4.951L47.43,245.182L14.091,261.23c-5.051,2.432-5.051,9.621,0,12.053l158.008,76.057   c1.833,0.882,3.969,0.882,5.802,0l158.008-76.057C340.961,270.85,340.961,263.66,335.91,261.229z"
   id="path6" />
</g>
<g
   id="g10">
</g>
<g
   id="g12">
</g>
<g
   id="g14">
</g>
<g
   id="g16">
</g>
<g
   id="g18">
</g>
<g
   id="g20">
</g>
<g
   id="g22">
</g>
<g
   id="g24">
</g>
<g
   id="g26">
</g>
<g
   id="g28">
</g>
<g
   id="g30">
</g>
<g
   id="g32">
</g>
<g
   id="g34">
</g>
<g
   id="g36">
</g>
<g
   id="g38">
</g>
</svg>
